<svg width="648" height="680" viewBox="0 0 648 680" fill="none" xmlns="http://www.w3.org/2000/svg">
<path fill-rule="evenodd" clip-rule="evenodd" d="M645.401 466.09C468.999 375.461 344.388 202.296 321.731 0C336.296 0 350.861 -3.41935e-05 367.044 1.61834C441.487 8.0919 511.076 35.6041 559.628 82.5366C671.294 190.967 645.401 310.725 645.401 466.09Z" fill="#8AADFF"/>
<path fill-rule="evenodd" clip-rule="evenodd" d="M375.146 676.523C352.487 679.758 329.831 679.758 305.556 678.142C121.065 661.956 -14.8762 496.884 1.30726 309.153C9.39896 213.669 54.7127 132.751 122.683 76.1078L124.301 74.4894C130.775 68.0159 138.866 63.161 146.958 56.6874V58.3057C182.562 34.0301 223.02 17.8464 265.097 8.13623C265.097 48.5956 269.952 87.4362 278.044 124.659V126.277C278.044 129.514 279.662 132.751 279.662 134.369V135.987C279.662 139.224 281.28 140.843 281.28 144.079V147.316C281.28 150.553 282.899 152.171 282.899 153.789V157.026C282.899 160.263 284.517 161.881 284.517 163.5V166.737C284.517 169.973 286.135 171.591 286.135 174.828V176.447C287.754 179.683 287.754 181.302 289.372 184.539V186.157C292.609 195.867 295.846 205.577 299.082 215.287V216.906C300.7 220.143 300.7 221.761 302.319 224.998V226.616C303.937 228.235 303.937 231.471 305.556 233.089L307.174 234.708C308.792 236.326 308.792 239.563 310.411 241.181L312.029 242.8C313.647 246.037 313.647 247.655 315.266 249.273L316.884 250.891C318.502 254.128 320.121 255.747 320.121 258.983L321.739 260.602C323.357 263.839 324.976 265.457 326.594 268.694C331.449 278.404 336.304 286.496 341.157 296.206C342.776 299.443 344.395 301.061 346.014 304.298L347.633 305.916C349.252 307.535 350.868 310.772 352.487 312.391L354.106 314.007C355.725 315.626 357.344 318.864 358.959 320.483L360.578 322.098C362.197 323.717 363.816 326.955 365.435 328.574L367.051 330.193C368.67 333.428 370.289 335.047 371.908 338.285C379.999 349.611 388.091 360.94 397.802 370.651C399.42 373.889 402.655 375.504 404.274 377.123C405.893 378.742 409.131 381.98 410.747 383.599L412.366 385.215C413.985 386.834 417.223 390.072 418.838 391.691C420.457 393.306 423.695 396.544 425.314 398.163C441.497 415.965 459.299 432.148 478.717 446.716C481.955 448.331 483.574 451.569 486.808 453.188C525.65 482.32 567.727 508.214 613.041 527.631C622.752 532.488 632.459 535.726 642.17 538.961V665.194C562.873 657.102 488.427 634.443 422.076 598.839C402.655 587.513 383.237 576.184 365.435 563.235C362.197 561.62 358.959 558.382 357.344 556.763C354.106 555.144 350.868 551.909 349.252 550.29C334.686 538.961 320.121 527.631 307.174 514.686H305.556C303.937 513.067 300.7 509.829 299.082 508.214L297.464 506.595C295.846 504.976 292.609 501.738 290.991 500.122L289.372 498.503C287.754 496.884 284.517 493.646 282.899 492.027V490.411C273.189 480.701 263.479 469.371 255.387 459.661L253.769 458.042C252.15 456.423 250.532 453.188 248.914 451.569L247.295 448.331C245.677 446.712 244.058 443.478 242.44 441.859C242.44 440.24 240.822 440.24 240.822 438.621C239.204 437.005 237.585 433.767 235.967 432.148C235.967 430.529 234.349 430.529 234.349 428.91C232.73 427.295 231.112 424.057 229.493 422.438L227.875 420.819C224.638 414.346 219.784 409.493 216.547 404.636C214.929 403.017 213.31 399.782 211.692 398.163C210.073 396.544 210.073 396.544 210.073 394.925C208.455 393.306 206.837 390.072 206.837 388.453C205.218 386.834 205.218 385.215 203.6 383.599C201.982 381.98 201.982 378.742 200.364 377.123C198.745 375.504 198.745 373.889 197.127 372.27C195.508 370.651 195.508 369.032 193.89 365.797C193.89 364.178 192.272 362.559 190.653 360.94C189.035 359.321 189.035 357.702 187.417 354.468C187.417 352.849 185.798 351.23 185.798 349.611C184.18 346.376 182.561 341.519 179.325 338.285C179.325 336.666 177.707 335.047 177.707 333.428C176.088 331.809 176.088 330.193 174.47 326.955C172.852 325.336 172.852 323.717 171.233 322.098C171.233 320.483 169.615 318.864 169.615 317.245C167.996 315.626 167.996 314.007 166.378 310.772C166.378 309.153 164.76 307.535 164.76 304.298C164.76 302.679 163.142 301.061 163.142 297.824C163.142 294.588 161.523 294.588 161.523 291.351C161.523 288.114 159.905 288.114 159.905 284.877C159.905 283.259 158.287 281.641 158.287 280.022C158.287 278.404 156.668 275.167 156.668 273.549C156.668 271.93 155.05 270.312 155.05 268.694C153.431 265.457 151.813 260.602 151.813 257.365C151.813 255.747 151.813 254.128 150.195 254.128C150.195 250.891 148.576 249.273 148.576 246.037C148.576 244.418 146.958 242.8 146.958 241.181C146.958 239.563 145.34 236.326 145.34 234.708C145.34 233.089 143.722 231.471 143.722 229.853C143.722 228.235 142.103 224.998 142.103 223.379C142.103 221.761 142.103 220.143 140.485 218.524C140.485 216.906 138.866 213.669 138.866 212.051C138.866 210.433 138.866 208.814 137.248 207.196C137.248 203.959 135.63 202.341 135.63 199.104C135.63 197.485 135.63 195.867 134.011 194.249C134.011 189.394 132.393 186.157 132.393 182.92C132.393 181.302 132.393 181.302 132.393 179.683V176.447C122.683 386.834 219.784 569.711 375.146 676.523Z" fill="#8AADFF"/>
</svg>
